<svg version="1.1" id="Layer_1" xmlns="http://www.w3.org/2000/svg" xmlns:xlink="http://www.w3.org/1999/xlink" x="0px" y="0px"
	 width="100%" viewBox="0 0 676 674" enable-background="new 0 0 676 674" xml:space="preserve">
<path fill="#FEFFFF" opacity="1.000000" stroke="none" 
	d="
M332.000000,675.000000 
	C321.309265,675.000000 310.618500,675.000000 299.561035,674.552246 
	C298.765503,673.356140 298.358032,671.972229 297.904663,671.957031 
	C292.846680,671.787537 287.776459,671.719788 282.724945,671.955200 
	C282.104004,671.984131 281.572815,673.938110 281.000000,675.000000 
	C187.681793,675.000000 94.363594,675.000000 1.022697,675.000000 
	C1.022697,450.384888 1.022697,225.769775 1.022697,1.077333 
	C226.245209,1.077333 451.490479,1.077333 676.867859,1.077333 
	C676.867859,225.666626 676.867859,450.333313 676.870728,675.000000 
	C568.558350,675.000000 460.243042,675.000000 351.479492,674.555481 
	C350.906769,673.815613 350.794373,673.268005 350.656097,673.261292 
	C344.779907,672.979614 338.902069,672.705505 333.021515,672.614868 
	C332.693359,672.609741 332.341034,674.168884 332.000000,675.000000 
M279.762695,652.904358 
	C289.150909,643.193420 300.277313,635.912659 312.428101,630.262634 
	C335.691406,619.445190 360.675934,615.449890 385.869629,612.711487 
	C418.276794,609.188965 450.875702,607.575623 482.999329,601.355408 
	C549.222168,588.532471 597.416931,552.207764 626.756775,491.495483 
	C648.256653,447.006317 655.012451,399.916595 649.228699,350.963745 
	C644.723816,312.835266 632.618958,277.443604 610.820251,245.606186 
	C610.159973,244.641830 609.314087,243.804535 608.099976,242.371124 
	C607.628662,251.640732 604.439514,259.027588 599.663818,265.845459 
	C591.401794,277.640533 580.408325,286.541992 568.766052,294.649963 
	C542.130737,313.199585 512.658020,326.460266 483.433777,340.215759 
	C461.328949,350.620239 438.806915,360.412201 417.697418,372.601501 
	C371.164673,399.471008 333.491119,435.904724 305.804535,482.262299 
	C284.578430,517.802673 272.225220,556.345459 267.073425,597.289001 
	C266.312103,603.339783 266.115112,609.461609 265.657043,615.550537 
	C267.808441,614.118225 268.829559,612.602539 269.822784,611.068787 
	C295.998077,570.647522 322.913879,530.776733 355.484619,495.074799 
	C378.641937,469.691254 404.355865,447.414856 434.286835,430.301941 
	C467.755615,411.166199 503.865387,400.427063 542.190247,397.089569 
	C551.729553,396.258850 561.333801,396.173981 570.908203,395.746277 
	C567.570251,397.381165 564.189941,398.128021 560.809570,398.874146 
	C508.990479,410.312012 461.906952,432.038574 419.694000,464.178436 
	C373.742035,499.165039 336.781494,542.185852 308.192200,592.177490 
	C297.083984,611.601440 288.338715,632.376587 278.163513,652.973694 
	C278.209137,653.241882 278.254761,653.510010 278.300415,653.778198 
	C278.578033,653.565308 278.855652,653.352356 279.762695,652.904358 
M302.824677,78.890495 
	C303.124115,79.155197 303.423523,79.419899 303.722961,79.684593 
	C303.642273,78.979889 303.561615,78.275185 303.278381,76.880844 
	C300.832672,71.255440 298.386963,65.630035 295.975067,60.082439 
	C276.731812,60.908924 272.383728,60.542084 267.267944,57.307243 
	C273.646912,53.461231 279.858337,50.000195 285.729401,46.035206 
	C288.044800,44.471523 289.601257,41.784088 291.503296,39.608360 
	C291.197083,39.164307 290.890839,38.720253 290.584625,38.276203 
	C343.901428,34.519001 394.484589,44.290592 441.687042,69.852310 
	C480.963989,91.122101 513.470886,120.008163 539.127991,158.045609 
	C534.038818,158.529556 529.936401,158.919678 524.536499,159.433167 
	C533.072327,165.948044 537.732910,173.555557 538.564758,182.906876 
	C539.600220,194.547043 545.259705,203.633163 553.020386,211.753952 
	C555.425293,214.270416 558.168152,215.879913 561.954468,214.423019 
	C562.823792,214.088516 564.768066,214.644440 565.197266,215.383301 
	C567.680054,219.656906 571.652954,223.231201 570.130676,229.300354 
	C569.512573,231.764359 571.356079,234.959351 572.398804,237.700287 
	C574.044983,242.027786 576.179565,246.180099 577.634888,250.563461 
	C578.101685,251.969528 577.637878,254.416367 576.634644,255.453781 
	C571.896606,260.353546 571.349487,263.319305 575.484436,271.330688 
	C580.525330,264.879456 585.221191,259.017212 589.687500,252.985001 
	C590.313110,252.140076 590.071533,250.403549 589.796448,249.177322 
	C580.014343,205.575668 561.307983,166.202591 533.036377,131.590363 
	C497.242828,87.769188 452.230103,57.271980 398.414337,39.719402 
	C375.496368,32.244473 351.941498,28.536840 327.038177,26.957922 
	C317.041168,27.007048 307.044159,27.056173 296.177887,26.982599 
	C290.995422,27.392885 285.796021,27.653446 280.633179,28.237101 
	C238.650116,32.983204 199.610703,46.428516 163.712479,68.649338 
	C113.580673,99.680679 76.613998,142.346680 52.597664,196.162399 
	C38.701107,227.301743 30.926094,259.969421 28.944672,294.957703 
	C28.989922,305.293518 29.035172,315.629303 28.954037,326.845154 
	C30.799620,352.673859 34.912971,378.082794 43.768406,402.514008 
	C77.372246,495.223602 141.601273,555.699890 235.791824,584.488159 
	C241.295227,586.170288 246.980545,587.257202 252.311768,588.555481 
	C252.934204,587.649658 253.230240,587.405396 253.278183,587.119446 
	C253.635574,584.987488 253.907166,582.841125 254.272781,580.710754 
	C269.265747,493.349548 314.918762,425.594421 386.343201,374.365631 
	C412.613159,355.523651 441.462524,341.453888 471.140900,328.950897 
	C472.508270,328.374817 473.802124,327.624268 474.696320,327.173615 
	C468.533356,325.010864 462.557526,322.913788 456.075806,320.639191 
	C458.911743,316.814392 461.059113,315.572052 464.718719,317.490509 
	C466.942749,318.656433 469.799652,318.886871 472.397156,319.009583 
	C477.192047,319.236176 482.005280,319.074371 487.443939,319.074371 
	C487.665619,318.475861 488.800598,316.983612 488.566711,315.751160 
	C487.838684,311.914917 487.111755,307.895630 485.293457,304.538086 
	C484.554596,303.173706 480.994690,303.369751 478.736176,302.786926 
	C476.189331,302.129700 473.201050,302.019196 471.226196,300.559540 
	C467.501465,297.806580 463.865723,297.683807 459.948975,299.300110 
	C456.416260,300.757965 453.087311,302.738861 449.503479,304.031616 
	C447.618256,304.711670 445.379883,304.412567 443.300934,304.555573 
	C443.559418,302.136993 443.058624,299.211334 444.255402,297.419434 
	C446.023010,294.772766 448.997742,292.932312 451.644836,290.583099 
	C450.546692,288.736633 449.549835,287.060425 448.402039,285.130371 
	C444.332489,286.814178 440.539703,288.475098 436.668610,289.927185 
	C435.563293,290.341797 433.944824,290.656677 433.051392,290.151398 
	C428.885864,287.795532 426.651825,284.198151 426.706787,279.132050 
	C431.282684,280.121155 435.397339,281.346130 439.593292,281.773804 
	C441.642883,281.982727 444.938660,281.351685 445.751984,279.970856 
	C447.533569,276.946106 448.899506,273.129150 444.901367,270.208557 
	C437.118713,264.523529 429.587738,258.442200 421.451233,253.321548 
	C418.623138,251.541718 414.311340,252.129715 410.680756,251.611252 
	C408.134430,251.247620 405.389008,251.320862 403.099823,250.340973 
	C399.763580,248.912918 396.897217,246.403824 393.581329,244.908066 
	C386.838837,241.866592 382.026184,243.736038 378.947235,250.054367 
	C378.298309,251.385986 377.500153,252.708511 376.511230,253.800079 
	C371.596283,259.225159 372.014709,262.713226 377.757111,267.646698 
	C382.031708,271.319122 385.954926,275.400208 390.039734,279.293945 
	C391.786285,280.958801 393.545929,282.609955 395.859589,284.796600 
	C396.336456,281.911957 396.810547,279.971802 396.951752,278.007751 
	C397.311493,273.002472 399.832764,269.668549 404.353729,267.639221 
	C411.648224,264.364899 418.056641,267.112061 423.014526,275.990387 
	C423.014526,275.990387 422.833557,276.176849 421.999207,276.258057 
	C417.640472,274.912781 415.499573,276.804199 414.796906,281.048828 
	C414.255280,284.320190 413.398102,287.541260 412.903656,290.818237 
	C411.189636,302.177979 408.684784,313.262146 402.452728,323.493591 
	C394.454498,317.723053 387.274750,311.618286 382.272797,303.357697 
	C378.737030,297.518463 379.484528,294.152191 384.782043,290.630951 
	C388.696777,288.028870 389.883728,284.573608 386.199005,281.234222 
	C381.023987,276.544250 375.032745,272.022369 368.573822,269.716705 
	C363.532532,267.917084 360.006897,265.682587 356.675323,261.707855 
	C353.821503,258.303040 349.903961,255.690536 346.160400,253.167480 
	C343.865448,251.620743 341.093750,250.598862 338.393311,249.871277 
	C331.076080,247.899734 323.693390,244.905350 316.315857,244.844650 
	C310.913849,244.800201 306.330109,243.879211 301.552094,241.974487 
	C296.555298,239.982544 291.434296,238.302231 286.367584,236.485718 
	C286.307007,235.934464 286.246399,235.383209 286.185822,234.831955 
	C289.268951,233.178833 292.352112,231.525711 296.028717,229.554367 
	C295.271454,225.592499 294.774200,221.136093 293.507507,216.910324 
	C292.349640,213.047577 290.433258,209.331436 284.500946,211.295303 
	C284.188812,208.827927 283.078064,206.395569 283.809906,204.818130 
	C289.154755,193.298401 284.685364,183.137878 277.090759,175.813919 
	C268.041901,167.087524 256.655487,160.783508 246.262939,153.456772 
	C245.735962,153.085251 245.033539,152.958481 244.407700,152.731873 
	C236.685730,149.935822 228.962799,147.142410 220.815735,144.194794 
	C222.232651,143.082214 223.289246,142.046768 224.525772,141.315643 
	C231.612457,137.125534 236.001678,131.113297 238.276855,123.127487 
	C239.437149,119.054863 241.850769,115.272583 244.073151,111.585243 
	C247.250046,106.314194 250.746475,101.353218 251.016266,94.772949 
	C251.166916,91.098694 256.543488,86.758316 258.697235,88.106544 
	C261.930176,90.130363 264.658447,90.034630 267.974396,88.412689 
	C269.358643,87.735596 271.596832,88.161217 273.221863,88.729042 
	C280.859711,91.397858 286.455078,88.408394 288.709290,80.489395 
	C289.149017,78.944519 290.386475,77.468857 291.602051,76.330933 
	C296.057526,72.160042 299.510559,74.644295 302.824677,78.890495 
M373.989075,164.880798 
	C380.891388,167.222092 386.450134,164.057251 392.986816,160.976562 
	C385.154816,157.524872 378.394745,154.545609 371.636993,151.567352 
	C367.527740,160.453339 367.527740,160.453339 373.989075,164.880798 
z"/>
<path fill="#1EB2E4" opacity="1.000000" stroke="none" 
	d="
M281.467957,675.000000 
	C281.572815,673.938110 282.104004,671.984131 282.724945,671.955200 
	C287.776459,671.719788 292.846680,671.787537 297.904663,671.957031 
	C298.358032,671.972229 298.765503,673.356140 299.097168,674.552246 
	C293.311951,675.000000 287.623932,675.000000 281.467957,675.000000 
z"/>
<path fill="#2EB3E4" opacity="1.000000" stroke="none" 
	d="
M332.468262,675.000000 
	C332.341034,674.168884 332.693359,672.609741 333.021515,672.614868 
	C338.902069,672.705505 344.779907,672.979614 350.656097,673.261292 
	C350.794373,673.268005 350.906769,673.815613 351.015625,674.555481 
	C344.978851,675.000000 338.957703,675.000000 332.468262,675.000000 
z"/>
<path fill="#2AB2E4" opacity="1.000000" stroke="none" 
	d="
M327.961761,27.095592 
	C351.941498,28.536840 375.496368,32.244473 398.414337,39.719402 
	C452.230103,57.271980 497.242828,87.769188 533.036377,131.590363 
	C561.307983,166.202591 580.014343,205.575668 589.796448,249.177322 
	C590.071533,250.403549 590.313110,252.140076 589.687500,252.985001 
	C585.221191,259.017212 580.525330,264.879456 575.484436,271.330688 
	C571.349487,263.319305 571.896606,260.353546 576.634644,255.453781 
	C577.637878,254.416367 578.101685,251.969528 577.634888,250.563461 
	C576.179565,246.180099 574.044983,242.027786 572.398804,237.700287 
	C571.356079,234.959351 569.512573,231.764359 570.130676,229.300354 
	C571.652954,223.231201 567.680054,219.656906 565.197266,215.383301 
	C564.768066,214.644440 562.823792,214.088516 561.954468,214.423019 
	C558.168152,215.879913 555.425293,214.270416 553.020386,211.753952 
	C545.259705,203.633163 539.600220,194.547043 538.564758,182.906876 
	C537.732910,173.555557 533.072327,165.948044 524.536499,159.433167 
	C529.936401,158.919678 534.038818,158.529556 539.127991,158.045609 
	C513.470886,120.008163 480.963989,91.122101 441.687042,69.852310 
	C394.484589,44.290592 343.901428,34.519001 290.584625,38.276203 
	C290.890839,38.720253 291.197083,39.164307 291.503296,39.608360 
	C289.601257,41.784088 288.044800,44.471523 285.729401,46.035206 
	C279.858337,50.000195 273.646912,53.461231 267.267944,57.307243 
	C272.383728,60.542084 276.731812,60.908924 295.975067,60.082439 
	C298.386963,65.630035 300.832672,71.255440 303.183167,77.396912 
	C302.958099,78.028496 302.828278,78.144012 302.698425,78.259537 
	C299.510559,74.644295 296.057526,72.160042 291.602051,76.330933 
	C290.386475,77.468857 289.149017,78.944519 288.709290,80.489395 
	C286.455078,88.408394 280.859711,91.397858 273.221863,88.729042 
	C271.596832,88.161217 269.358643,87.735596 267.974396,88.412689 
	C264.658447,90.034630 261.930176,90.130363 258.697235,88.106544 
	C256.543488,86.758316 251.166916,91.098694 251.016266,94.772949 
	C250.746475,101.353218 247.250046,106.314194 244.073151,111.585243 
	C241.850769,115.272583 239.437149,119.054863 238.276855,123.127487 
	C236.001678,131.113297 231.612457,137.125534 224.525772,141.315643 
	C223.289246,142.046768 222.232651,143.082214 220.815735,144.194794 
	C228.962799,147.142410 236.685730,149.935822 244.407700,152.731873 
	C245.033539,152.958481 245.735962,153.085251 246.262939,153.456772 
	C256.655487,160.783508 268.041901,167.087524 277.090759,175.813919 
	C284.685364,183.137878 289.154755,193.298401 283.809906,204.818130 
	C283.078064,206.395569 284.188812,208.827927 284.500946,211.295303 
	C290.433258,209.331436 292.349640,213.047577 293.507507,216.910324 
	C294.774200,221.136093 295.271454,225.592499 296.028717,229.554367 
	C292.352112,231.525711 289.268951,233.178833 286.185822,234.831955 
	C286.246399,235.383209 286.307007,235.934464 286.367584,236.485718 
	C291.434296,238.302231 296.555298,239.982544 301.552094,241.974487 
	C306.330109,243.879211 310.913849,244.800201 316.315857,244.844650 
	C323.693390,244.905350 331.076080,247.899734 338.393311,249.871277 
	C341.093750,250.598862 343.865448,251.620743 346.160400,253.167480 
	C349.903961,255.690536 353.821503,258.303040 356.675323,261.707855 
	C360.006897,265.682587 363.532532,267.917084 368.573822,269.716705 
	C375.032745,272.022369 381.023987,276.544250 386.199005,281.234222 
	C389.883728,284.573608 388.696777,288.028870 384.782043,290.630951 
	C379.484528,294.152191 378.737030,297.518463 382.272797,303.357697 
	C387.274750,311.618286 394.454498,317.723053 402.452728,323.493591 
	C408.684784,313.262146 411.189636,302.177979 412.903656,290.818237 
	C413.398102,287.541260 414.255280,284.320190 414.796906,281.048828 
	C415.499573,276.804199 417.640472,274.912781 422.510986,276.395050 
	C423.249359,276.472290 423.475983,276.412567 423.702606,276.352844 
	C423.534393,276.170654 423.366180,275.988464 423.197937,275.806305 
	C418.056641,267.112061 411.648224,264.364899 404.353729,267.639221 
	C399.832764,269.668549 397.311493,273.002472 396.951752,278.007751 
	C396.810547,279.971802 396.336456,281.911957 395.859589,284.796600 
	C393.545929,282.609955 391.786285,280.958801 390.039734,279.293945 
	C385.954926,275.400208 382.031708,271.319122 377.757111,267.646698 
	C372.014709,262.713226 371.596283,259.225159 376.511230,253.800079 
	C377.500153,252.708511 378.298309,251.385986 378.947235,250.054367 
	C382.026184,243.736038 386.838837,241.866592 393.581329,244.908066 
	C396.897217,246.403824 399.763580,248.912918 403.099823,250.340973 
	C405.389008,251.320862 408.134430,251.247620 410.680756,251.611252 
	C414.311340,252.129715 418.623138,251.541718 421.451233,253.321548 
	C429.587738,258.442200 437.118713,264.523529 444.901367,270.208557 
	C448.899506,273.129150 447.533569,276.946106 445.751984,279.970856 
	C444.938660,281.351685 441.642883,281.982727 439.593292,281.773804 
	C435.397339,281.346130 431.282684,280.121155 426.706787,279.132050 
	C426.651825,284.198151 428.885864,287.795532 433.051392,290.151398 
	C433.944824,290.656677 435.563293,290.341797 436.668610,289.927185 
	C440.539703,288.475098 444.332489,286.814178 448.402039,285.130371 
	C449.549835,287.060425 450.546692,288.736633 451.644836,290.583099 
	C448.997742,292.932312 446.023010,294.772766 444.255402,297.419434 
	C443.058624,299.211334 443.559418,302.136993 443.300964,304.555573 
	C445.379883,304.412567 447.618256,304.711670 449.503479,304.031616 
	C453.087311,302.738861 456.416260,300.757965 459.948975,299.300110 
	C463.865723,297.683807 467.501465,297.806580 471.226196,300.559540 
	C473.201050,302.019196 476.189331,302.129700 478.736176,302.786926 
	C480.994690,303.369751 484.554596,303.173706 485.293457,304.538086 
	C487.111755,307.895630 487.838684,311.914917 488.566711,315.751160 
	C488.800598,316.983612 487.665619,318.475861 487.443939,319.074371 
	C482.005280,319.074371 477.192047,319.236176 472.397156,319.009583 
	C469.799652,318.886871 466.942749,318.656433 464.718719,317.490509 
	C461.059113,315.572052 458.911743,316.814392 456.075806,320.639191 
	C462.557526,322.913788 468.533356,325.010864 474.696320,327.173615 
	C473.802124,327.624268 472.508270,328.374817 471.140900,328.950897 
	C441.462524,341.453888 412.613159,355.523651 386.343201,374.365631 
	C314.918762,425.594421 269.265747,493.349548 254.272781,580.710754 
	C253.907166,582.841125 253.635574,584.987488 253.278183,587.119446 
	C253.230240,587.405396 252.934204,587.649658 252.311768,588.555481 
	C246.980545,587.257202 241.295227,586.170288 235.791824,584.488159 
	C141.601273,555.699890 77.372246,495.223602 43.768406,402.514008 
	C34.912971,378.082794 30.799620,352.673859 29.300407,326.104675 
	C29.757511,317.962372 29.965931,310.560089 29.931824,303.158936 
	C29.917799,300.115875 29.381443,297.075256 29.082678,294.033508 
	C30.926094,259.969421 38.701107,227.301743 52.597664,196.162399 
	C76.613998,142.346680 113.580673,99.680679 163.712479,68.649338 
	C199.610703,46.428516 238.650116,32.983204 280.633179,28.237101 
	C285.796021,27.653446 290.995422,27.392885 296.915955,27.321507 
	C304.058838,27.766657 310.464783,27.995029 316.867920,27.932243 
	C320.568237,27.895960 324.263977,27.390108 327.961761,27.095592 
M120.058273,503.072784 
	C119.725319,503.138580 119.392365,503.204407 119.059402,503.270233 
	C119.325546,503.557587 119.591690,503.844910 120.144768,504.743103 
	C122.422096,506.962585 124.699432,509.182068 126.976761,511.401550 
	C127.433205,511.170044 127.889656,510.938568 128.346100,510.707062 
	C127.913017,508.262207 127.479927,505.817352 127.080139,503.560486 
	C124.277031,503.560486 122.363785,503.560486 120.058273,503.072784 
M50.000248,383.346039 
	C49.750820,383.385406 49.501396,383.424774 49.251976,383.464172 
	C49.405704,383.736023 49.559437,384.007874 49.742321,385.059418 
	C61.935680,429.130188 84.126953,467.483612 115.759872,500.426544 
	C116.556046,501.255676 117.635704,501.812561 118.500214,502.436554 
	C117.355537,496.485748 116.287704,490.852722 115.182755,485.226959 
	C114.682724,482.681091 115.536995,481.609924 118.156029,480.619995 
	C121.237328,479.455353 124.485901,477.537476 126.521431,475.023010 
	C132.980591,467.043854 135.426620,466.046417 144.750137,470.040222 
	C148.205765,471.520447 151.426971,473.547852 154.880371,475.392670 
	C151.677109,483.415924 141.019348,485.574036 141.047974,494.282532 
	C147.333923,494.793976 153.411743,494.689392 159.183823,495.966614 
	C163.097656,496.832611 166.489426,499.847565 170.278687,501.532654 
	C177.228668,504.623230 184.098907,508.155060 191.368744,510.201508 
	C201.608475,513.083923 205.994049,509.509888 207.310211,499.078125 
	C207.537491,497.276733 208.604568,495.581299 209.283722,493.836914 
	C211.047333,494.632599 213.132004,495.065155 214.516800,496.289337 
	C219.481323,500.678375 224.209000,505.335297 228.578629,509.467651 
	C237.198181,502.583649 245.642471,495.889618 254.021729,489.115173 
	C256.342529,487.238831 258.626923,485.267944 260.643188,483.078186 
	C262.747498,480.792755 264.132019,478.355072 261.745911,475.070038 
	C260.925720,473.940796 261.196259,471.479706 261.800873,469.957733 
	C263.516083,465.639984 265.740326,461.527588 267.603333,457.264038 
	C268.518860,455.168823 270.039124,452.716034 269.630280,450.773529 
	C268.017395,443.110565 265.537079,435.899597 258.814178,430.654205 
	C256.110077,428.544342 253.718170,424.720459 253.195038,421.363312 
	C251.235794,408.790161 243.028610,400.753418 230.356537,400.146301 
	C227.361160,400.002808 224.371338,399.682678 221.375458,399.625031 
	C216.396088,399.529205 213.108856,397.743835 213.329666,391.332123 
	C217.529099,390.225739 221.916199,388.393433 226.420090,388.036926 
	C233.738312,387.457672 238.872086,383.736755 241.814316,377.700897 
	C244.143188,372.923279 245.610535,367.403076 246.046249,362.096497 
	C246.813324,352.754059 248.520187,344.561890 257.826019,339.690338 
	C260.947876,338.056061 263.610962,335.093201 265.778351,332.207733 
	C268.229431,328.944611 271.147034,325.234833 271.595612,321.450653 
	C272.275269,315.717346 274.569641,311.267700 277.601166,306.626923 
	C283.161621,298.114716 282.680176,295.930481 276.616791,290.167114 
	C276.616791,280.823944 276.616791,272.482819 276.616791,264.468933 
	C284.590912,261.906433 284.587433,261.908020 287.589172,268.435974 
	C288.144684,269.644104 288.452393,271.199738 289.391052,271.939209 
	C290.572571,272.869995 292.447327,273.846191 293.741791,273.554596 
	C300.904785,271.941040 303.934113,274.824524 302.764862,282.085022 
	C302.277435,285.111847 302.683899,288.282654 302.683899,291.387970 
	C307.846313,284.636322 307.854126,277.304138 306.099670,269.922729 
	C304.452667,262.993530 302.022552,256.212280 304.278168,249.028442 
	C304.188385,249.028320 304.098572,249.028198 303.314423,249.167145 
	C296.341431,250.653198 289.359741,251.095612 282.494324,248.769257 
	C281.184784,248.325500 280.234711,246.906372 279.013428,246.096069 
	C277.353912,244.994995 275.666931,243.883774 273.861023,243.065231 
	C269.372620,241.030777 264.810181,239.159653 260.086853,237.141479 
	C262.942932,229.819092 272.043793,227.628372 272.050659,218.408432 
	C262.402252,222.509888 254.748688,218.285858 246.663727,214.392410 
	C236.689377,209.589081 226.258224,205.695999 215.886612,201.774200 
	C211.534775,200.128632 207.128464,203.770248 205.909882,208.244324 
	C204.357697,213.943253 202.061691,219.441559 200.044342,225.011139 
	C198.746216,228.595108 196.869629,232.052002 196.138199,235.741486 
	C194.652039,243.237976 191.444748,249.469452 185.431381,254.313889 
	C179.399109,259.173553 172.951569,262.123169 164.910782,261.020996 
	C163.135300,260.777649 161.106110,262.385101 159.227631,263.126923 
	C161.772049,270.438232 155.324768,276.287720 142.687393,278.624451 
	C141.266495,273.012421 136.459854,271.258362 131.653152,269.092560 
	C129.405350,268.079742 126.990326,265.491089 126.384583,263.165192 
	C124.883133,257.399994 126.492386,251.753113 128.782959,246.193420 
	C136.143555,247.305344 140.624878,255.265533 149.356857,253.245621 
	C145.215073,247.107056 143.107712,240.773209 145.117142,233.714462 
	C146.118103,230.198273 147.404388,226.741882 148.121780,223.170090 
	C151.155716,208.064621 155.463287,192.726151 142.148529,179.854126 
	C142.031860,179.741318 141.898438,179.583755 141.884232,179.436356 
	C141.663788,177.150406 141.425003,174.865204 141.266052,172.574600 
	C141.112747,170.365753 141.141937,168.141113 140.916672,165.941254 
	C140.654510,163.381042 139.720688,160.802368 139.917267,158.297562 
	C140.764114,147.506729 145.650040,139.783386 156.732529,136.762268 
	C158.537888,136.270126 160.815536,134.496063 161.340256,132.830933 
	C163.917267,124.652924 165.976013,116.311615 168.238754,107.950638 
	C168.055344,107.928596 167.545349,107.721138 167.125763,107.838074 
	C153.728516,111.571663 140.104309,113.254913 126.184479,112.777039 
	C124.827515,112.730446 123.165222,113.998657 122.067062,115.083961 
	C76.662659,159.957275 49.425076,213.928894 41.672714,277.379578 
	C41.091091,282.139984 43.535198,287.773804 46.030384,292.175323 
	C47.133186,294.120636 51.875980,294.014252 54.973682,294.810638 
	C56.097313,295.099487 57.236988,295.484741 58.378555,295.519012 
	C65.168373,295.722809 69.045410,299.460358 71.891792,305.384796 
	C78.204567,318.524078 87.197754,329.600830 99.353920,337.802338 
	C103.617973,340.679230 106.028458,344.468140 107.860428,349.113403 
	C110.470222,355.730927 113.612816,362.137726 116.504814,368.644775 
	C117.917572,371.823578 120.442253,375.035156 120.415909,378.214905 
	C120.364052,384.473724 123.557854,388.158447 128.041077,391.326935 
	C132.690018,394.612549 134.912598,398.961304 134.285217,404.606110 
	C133.501297,411.659393 132.554459,418.694611 131.587601,426.463684 
	C102.213570,415.692657 72.694611,406.541229 50.000248,383.346039 
z"/>
<path fill="#70A827" opacity="1.000000" stroke="none" 
	d="
M278.517059,652.536255 
	C288.338715,632.376587 297.083984,611.601440 308.192200,592.177490 
	C336.781494,542.185852 373.742035,499.165039 419.694000,464.178436 
	C461.906952,432.038574 508.990479,410.312012 560.809570,398.874146 
	C564.189941,398.128021 567.570251,397.381165 570.908203,395.746277 
	C561.333801,396.173981 551.729553,396.258850 542.190247,397.089569 
	C503.865387,400.427063 467.755615,411.166199 434.286835,430.301941 
	C404.355865,447.414856 378.641937,469.691254 355.484619,495.074799 
	C322.913879,530.776733 295.998077,570.647522 269.822784,611.068787 
	C268.829559,612.602539 267.808441,614.118225 265.657043,615.550537 
	C266.115112,609.461609 266.312103,603.339783 267.073425,597.289001 
	C272.225220,556.345459 284.578430,517.802673 305.804535,482.262299 
	C333.491119,435.904724 371.164673,399.471008 417.697418,372.601501 
	C438.806915,360.412201 461.328949,350.620239 483.433777,340.215759 
	C512.658020,326.460266 542.130737,313.199585 568.766052,294.649963 
	C580.408325,286.541992 591.401794,277.640533 599.663818,265.845459 
	C604.439514,259.027588 607.628662,251.640732 608.099976,242.371124 
	C609.314087,243.804535 610.159973,244.641830 610.820251,245.606186 
	C632.618958,277.443604 644.723816,312.835266 649.228699,350.963745 
	C655.012451,399.916595 648.256653,447.006317 626.756775,491.495483 
	C597.416931,552.207764 549.222168,588.532471 482.999329,601.355408 
	C450.875702,607.575623 418.276794,609.188965 385.869629,612.711487 
	C360.675934,615.449890 335.691406,619.445190 312.428101,630.262634 
	C300.277313,635.912659 289.150909,643.193420 279.296814,652.868164 
	C278.830933,652.831970 278.517059,652.536255 278.517059,652.536255 
z"/>
<path fill="#2CB4E5" opacity="1.000000" stroke="none" 
	d="
M373.660522,164.681976 
	C367.527740,160.453339 367.527740,160.453339 371.636993,151.567352 
	C378.394745,154.545609 385.154816,157.524872 392.986816,160.976562 
	C386.450134,164.057251 380.891388,167.222092 373.660522,164.681976 
z"/>
<path fill="#00ABE2" opacity="1.000000" stroke="none" 
	d="
M29.013676,294.495605 
	C29.381443,297.075256 29.917799,300.115875 29.931824,303.158936 
	C29.965931,310.560089 29.757511,317.962372 29.363602,325.664673 
	C29.035172,315.629303 28.989922,305.293518 29.013676,294.495605 
z"/>
<path fill="#00ABE2" opacity="1.000000" stroke="none" 
	d="
M327.499969,27.026756 
	C324.263977,27.390108 320.568237,27.895960 316.867920,27.932243 
	C310.464783,27.995029 304.058838,27.766657 297.350586,27.382856 
	C307.044159,27.056173 317.041168,27.007048 327.499969,27.026756 
z"/>
<path fill="#2AB2E4" opacity="1.000000" stroke="none" 
	d="
M303.284424,77.741730 
	C303.561615,78.275185 303.642273,78.979889 303.722961,79.684601 
	C303.423523,79.419899 303.124115,79.155197 302.761536,78.575012 
	C302.828278,78.144012 302.958099,78.028496 303.284424,77.741730 
z"/>
<path fill="#70A827" opacity="1.000000" stroke="none" 
	d="
M278.982117,652.985718 
	C278.855652,653.352356 278.578033,653.565308 278.300415,653.778198 
	C278.254761,653.510010 278.209137,653.241882 278.340271,652.755005 
	C278.517059,652.536255 278.830933,652.831970 278.982117,652.985718 
z"/>
<path fill="#FEFEFF" opacity="1.000000" stroke="none" 
	d="
M303.944153,248.942612 
	C302.022552,256.212280 304.452667,262.993530 306.099670,269.922729 
	C307.854126,277.304138 307.846313,284.636322 302.683899,291.387970 
	C302.683899,288.282654 302.277435,285.111847 302.764862,282.085022 
	C303.934113,274.824524 300.904785,271.941040 293.741791,273.554596 
	C292.447327,273.846191 290.572571,272.869995 289.391052,271.939209 
	C288.452393,271.199738 288.144684,269.644104 287.589172,268.435974 
	C284.587433,261.908020 284.590912,261.906433 276.616791,264.468933 
	C276.616791,272.482819 276.616791,280.823944 276.616791,290.167114 
	C282.680176,295.930481 283.161621,298.114716 277.601166,306.626923 
	C274.569641,311.267700 272.275269,315.717346 271.595612,321.450653 
	C271.147034,325.234833 268.229431,328.944611 265.778351,332.207733 
	C263.610962,335.093201 260.947876,338.056061 257.826019,339.690338 
	C248.520187,344.561890 246.813324,352.754059 246.046249,362.096497 
	C245.610535,367.403076 244.143188,372.923279 241.814316,377.700897 
	C238.872086,383.736755 233.738312,387.457672 226.420090,388.036926 
	C221.916199,388.393433 217.529099,390.225739 213.329666,391.332123 
	C213.108856,397.743835 216.396088,399.529205 221.375458,399.625031 
	C224.371338,399.682678 227.361160,400.002808 230.356537,400.146301 
	C243.028610,400.753418 251.235794,408.790161 253.195038,421.363312 
	C253.718170,424.720459 256.110077,428.544342 258.814178,430.654205 
	C265.537079,435.899597 268.017395,443.110565 269.630280,450.773529 
	C270.039124,452.716034 268.518860,455.168823 267.603333,457.264038 
	C265.740326,461.527588 263.516083,465.639984 261.800873,469.957733 
	C261.196259,471.479706 260.925720,473.940796 261.745911,475.070038 
	C264.132019,478.355072 262.747498,480.792755 260.643188,483.078186 
	C258.626923,485.267944 256.342529,487.238831 254.021729,489.115173 
	C245.642471,495.889618 237.198181,502.583649 228.578629,509.467651 
	C224.209000,505.335297 219.481323,500.678375 214.516800,496.289337 
	C213.132004,495.065155 211.047333,494.632599 209.283722,493.836914 
	C208.604568,495.581299 207.537491,497.276733 207.310211,499.078125 
	C205.994049,509.509888 201.608475,513.083923 191.368744,510.201508 
	C184.098907,508.155060 177.228668,504.623230 170.278687,501.532654 
	C166.489426,499.847565 163.097656,496.832611 159.183823,495.966614 
	C153.411743,494.689392 147.333923,494.793976 141.047974,494.282532 
	C141.019348,485.574036 151.677109,483.415924 154.880371,475.392670 
	C151.426971,473.547852 148.205765,471.520447 144.750137,470.040222 
	C135.426620,466.046417 132.980591,467.043854 126.521431,475.023010 
	C124.485901,477.537476 121.237328,479.455353 118.156029,480.619995 
	C115.536995,481.609924 114.682724,482.681091 115.182755,485.226959 
	C116.287704,490.852722 117.355537,496.485748 118.500214,502.436554 
	C117.635704,501.812561 116.556046,501.255676 115.759872,500.426544 
	C84.126953,467.483612 61.935680,429.130188 49.848503,384.550171 
	C49.954681,384.040924 50.194534,383.800476 50.194534,383.800476 
	C72.694611,406.541229 102.213570,415.692657 131.587601,426.463684 
	C132.554459,418.694611 133.501297,411.659393 134.285217,404.606110 
	C134.912598,398.961304 132.690018,394.612549 128.041077,391.326935 
	C123.557854,388.158447 120.364052,384.473724 120.415909,378.214905 
	C120.442253,375.035156 117.917572,371.823578 116.504814,368.644775 
	C113.612816,362.137726 110.470222,355.730927 107.860428,349.113403 
	C106.028458,344.468140 103.617973,340.679230 99.353920,337.802338 
	C87.197754,329.600830 78.204567,318.524078 71.891792,305.384796 
	C69.045410,299.460358 65.168373,295.722809 58.378555,295.519012 
	C57.236988,295.484741 56.097313,295.099487 54.973682,294.810638 
	C51.875980,294.014252 47.133186,294.120636 46.030384,292.175323 
	C43.535198,287.773804 41.091091,282.139984 41.672714,277.379578 
	C49.425076,213.928894 76.662659,159.957275 122.067062,115.083961 
	C123.165222,113.998657 124.827515,112.730446 126.184479,112.777039 
	C140.104309,113.254913 153.728516,111.571663 167.125763,107.838074 
	C167.545349,107.721138 168.055344,107.928596 168.238754,107.950638 
	C165.976013,116.311615 163.917267,124.652924 161.340256,132.830933 
	C160.815536,134.496063 158.537888,136.270126 156.732529,136.762268 
	C145.650040,139.783386 140.764114,147.506729 139.917267,158.297562 
	C139.720688,160.802368 140.654510,163.381042 140.916672,165.941254 
	C141.141937,168.141113 141.112747,170.365753 141.266052,172.574600 
	C141.425003,174.865204 141.663788,177.150406 141.884232,179.436356 
	C141.898438,179.583755 142.031860,179.741318 142.148529,179.854126 
	C155.463287,192.726151 151.155716,208.064621 148.121780,223.170090 
	C147.404388,226.741882 146.118103,230.198273 145.117142,233.714462 
	C143.107712,240.773209 145.215073,247.107056 149.356857,253.245621 
	C140.624878,255.265533 136.143555,247.305344 128.782959,246.193420 
	C126.492386,251.753113 124.883133,257.399994 126.384583,263.165192 
	C126.990326,265.491089 129.405350,268.079742 131.653152,269.092560 
	C136.459854,271.258362 141.266495,273.012421 142.687393,278.624451 
	C155.324768,276.287720 161.772049,270.438232 159.227631,263.126923 
	C161.106110,262.385101 163.135300,260.777649 164.910782,261.020996 
	C172.951569,262.123169 179.399109,259.173553 185.431381,254.313889 
	C191.444748,249.469452 194.652039,243.237976 196.138199,235.741486 
	C196.869629,232.052002 198.746216,228.595108 200.044342,225.011139 
	C202.061691,219.441559 204.357697,213.943253 205.909882,208.244324 
	C207.128464,203.770248 211.534775,200.128632 215.886612,201.774200 
	C226.258224,205.695999 236.689377,209.589081 246.663727,214.392410 
	C254.748688,218.285858 262.402252,222.509888 272.050659,218.408432 
	C272.043793,227.628372 262.942932,229.819092 260.086853,237.141479 
	C264.810181,239.159653 269.372620,241.030777 273.861023,243.065231 
	C275.666931,243.883774 277.353912,244.994995 279.013428,246.096069 
	C280.234711,246.906372 281.184784,248.325500 282.494324,248.769257 
	C289.359741,251.095612 296.341431,250.653198 303.646912,249.075134 
	C303.979401,248.983139 303.944153,248.942612 303.944153,248.942612 
M223.515091,473.121307 
	C226.870407,474.767303 229.185379,473.726074 228.387100,470.009583 
	C226.612762,461.748901 224.500900,453.530060 221.931839,445.484070 
	C220.690079,441.595093 214.667877,439.057892 212.399994,440.903137 
	C208.820267,443.815735 205.281372,446.884094 202.284531,450.367676 
	C200.504105,452.437286 199.795273,455.428772 198.877228,457.415771 
	C204.997482,461.335907 213.928268,467.056244 223.515091,473.121307 
M206.861649,413.877899 
	C195.416626,403.040192 185.925873,390.202118 173.768326,380.096649 
	C167.797531,386.184143 170.103943,395.473785 178.250946,398.794403 
	C189.131912,403.229309 197.484558,410.334595 204.134171,419.810303 
	C205.132141,421.232391 206.829391,422.163788 208.203156,423.322205 
	C208.586166,423.054291 208.969177,422.786407 209.352173,422.518524 
	C208.649033,419.855499 207.945892,417.192474 206.861649,413.877899 
M152.439407,370.988708 
	C155.696747,374.514252 158.808502,378.196411 162.314194,381.454773 
	C163.186279,382.265320 165.748138,382.314484 166.777435,381.609711 
	C167.863403,380.866089 168.898773,378.473602 168.474472,377.372375 
	C166.647064,372.629700 165.257843,367.060394 161.811691,363.793701 
	C158.686127,360.830963 153.103973,360.459778 147.009949,358.409332 
	C148.964920,363.065552 150.500107,366.721924 152.439407,370.988708 
M180.048630,447.396515 
	C184.169128,449.592468 188.289627,451.788422 193.370377,454.496124 
	C190.404190,446.674438 185.979843,441.358856 180.001404,437.388306 
	C172.958389,432.710754 171.133301,433.110626 165.195419,439.959686 
	C169.960648,442.356293 174.665009,444.722290 180.048630,447.396515 
z"/>
<path fill="#FEFEFF" opacity="1.000000" stroke="none" 
	d="
M120.450539,503.560486 
	C122.363785,503.560486 124.277031,503.560486 127.080139,503.560486 
	C127.479927,505.817352 127.913017,508.262207 128.346100,510.707062 
	C127.889656,510.938568 127.433205,511.170044 126.976761,511.401550 
	C124.699432,509.182068 122.422096,506.962585 120.151070,504.296387 
	C120.157372,503.849670 120.450539,503.560486 120.450539,503.560486 
z"/>
<path fill="#FEFEFF" opacity="1.000000" stroke="none" 
	d="
M49.833923,384.160339 
	C49.559437,384.007874 49.405704,383.736023 49.251976,383.464172 
	C49.501396,383.424774 49.750820,383.385406 50.097389,383.573242 
	C50.194534,383.800476 49.954681,384.040924 49.833923,384.160339 
z"/>
<path fill="#FEFFFF" opacity="1.000000" stroke="none" 
	d="
M423.106232,275.898346 
	C423.366180,275.988464 423.534393,276.170654 423.702606,276.352844 
	C423.475983,276.412567 423.249359,276.472290 422.928162,276.354431 
	C422.833557,276.176849 423.014526,275.990387 423.106232,275.898346 
z"/>
<path fill="#FEFEFF" opacity="1.000000" stroke="none" 
	d="
M303.994080,249.005615 
	C304.098572,249.028198 304.188385,249.028320 304.111145,248.985535 
	C303.944153,248.942612 303.979401,248.983139 303.994080,249.005615 
z"/>
<path fill="#FEFEFF" opacity="1.000000" stroke="none" 
	d="
M120.007599,503.990967 
	C119.591690,503.844910 119.325546,503.557587 119.059402,503.270203 
	C119.392365,503.204407 119.725319,503.138580 120.254410,503.316650 
	C120.450539,503.560486 120.157372,503.849670 120.007599,503.990967 
z"/>
<path fill="#2AB3E4" opacity="1.000000" stroke="none" 
	d="
M223.187073,472.948944 
	C213.928268,467.056244 204.997482,461.335907 198.877228,457.415771 
	C199.795273,455.428772 200.504105,452.437286 202.284531,450.367676 
	C205.281372,446.884094 208.820267,443.815735 212.399994,440.903137 
	C214.667877,439.057892 220.690079,441.595093 221.931839,445.484070 
	C224.500900,453.530060 226.612762,461.748901 228.387100,470.009583 
	C229.185379,473.726074 226.870407,474.767303 223.187073,472.948944 
z"/>
<path fill="#2CB4E5" opacity="1.000000" stroke="none" 
	d="
M207.052200,414.203674 
	C207.945892,417.192474 208.649033,419.855499 209.352173,422.518524 
	C208.969177,422.786407 208.586166,423.054291 208.203156,423.322205 
	C206.829391,422.163788 205.132141,421.232391 204.134171,419.810303 
	C197.484558,410.334595 189.131912,403.229309 178.250946,398.794403 
	C170.103943,395.473785 167.797531,386.184143 173.768326,380.096649 
	C185.925873,390.202118 195.416626,403.040192 207.052200,414.203674 
z"/>
<path fill="#2BB4E4" opacity="1.000000" stroke="none" 
	d="
M152.237335,370.683533 
	C150.500107,366.721924 148.964920,363.065552 147.009949,358.409332 
	C153.103973,360.459778 158.686127,360.830963 161.811691,363.793701 
	C165.257843,367.060394 166.647064,372.629700 168.474472,377.372375 
	C168.898773,378.473602 167.863403,380.866089 166.777435,381.609711 
	C165.748138,382.314484 163.186279,382.265320 162.314194,381.454773 
	C158.808502,378.196411 155.696747,374.514252 152.237335,370.683533 
z"/>
<path fill="#2AB4E4" opacity="1.000000" stroke="none" 
	d="
M179.709015,447.242401 
	C174.665009,444.722290 169.960648,442.356293 165.195419,439.959686 
	C171.133301,433.110626 172.958389,432.710754 180.001404,437.388306 
	C185.979843,441.358856 190.404190,446.674438 193.370377,454.496124 
	C188.289627,451.788422 184.169128,449.592468 179.709015,447.242401 
z"/>
</svg>